<svg width="24" height="24" viewBox="0 0 24 24" fill="none" xmlns="http://www.w3.org/2000/svg">
<path fill-rule="evenodd" clip-rule="evenodd" d="M13.6347 20.7272V12.766H16.3581L16.7666 9.66243H13.6347V7.68126C13.6347 6.78299 13.888 6.17083 15.2027 6.17083L16.8769 6.17015V3.39421C16.5874 3.35731 15.5935 3.27271 14.4368 3.27271C12.0215 3.27271 10.3679 4.71878 10.3679 7.37389V9.66243H7.63623V12.766H10.3679V20.7272H13.6347Z" fill="#A239FF"/>
<mask id="mask0_1_2297" style="mask-type:luminance" maskUnits="userSpaceOnUse" x="7" y="3" width="10" height="18">
<path fill-rule="evenodd" clip-rule="evenodd" d="M13.6347 20.7272V12.766H16.3581L16.7666 9.66243H13.6347V7.68126C13.6347 6.78299 13.888 6.17083 15.2027 6.17083L16.8769 6.17015V3.39421C16.5874 3.35731 15.5935 3.27271 14.4368 3.27271C12.0215 3.27271 10.3679 4.71878 10.3679 7.37389V9.66243H7.63623V12.766H10.3679V20.7272H13.6347Z" fill="white"/>
</mask>
<g mask="url(#mask0_1_2297)">
</g>
</svg>
