<svg width="24" height="24" viewBox="0 0 24 24" fill="none" xmlns="http://www.w3.org/2000/svg">
<path fill-rule="evenodd" clip-rule="evenodd" d="M21.8184 6.14598C21.1358 6.44844 20.4034 6.65356 19.6339 6.74513C20.4196 6.27462 21.0211 5.52831 21.3061 4.64177C20.5691 5.0775 19.7556 5.39389 18.8887 5.56541C18.1946 4.82489 17.2072 4.36365 16.112 4.36365C14.011 4.36365 12.3075 6.06719 12.3075 8.16707C12.3075 8.46489 12.3411 8.75577 12.406 9.03392C9.24459 8.87513 6.44128 7.3605 4.56507 5.05895C4.2371 5.61986 4.05053 6.27344 4.05053 6.9711C4.05053 8.29107 4.72268 9.45574 5.74249 10.1371C5.11901 10.1163 4.53262 9.94477 4.01925 9.65968V9.70719C4.01925 11.5498 5.3311 13.0876 7.07056 13.4376C6.75186 13.5234 6.4158 13.5709 6.06813 13.5709C5.82246 13.5709 5.58489 13.5466 5.35195 13.5002C5.83634 15.0125 7.24092 16.1123 8.90507 16.1424C7.60365 17.1623 5.96268 17.7683 4.18034 17.7683C3.87325 17.7683 3.57077 17.7498 3.27295 17.7162C4.9568 18.7974 6.95586 19.4279 9.1044 19.4279C16.1028 19.4279 19.9283 13.6312 19.9283 8.60398L19.9155 8.11147C20.663 7.57834 21.3096 6.90853 21.8184 6.14598Z" fill="#A239FF"/>
<mask id="mask0_1_2298" style="mask-type:luminance" maskUnits="userSpaceOnUse" x="3" y="4" width="19" height="16">
<path fill-rule="evenodd" clip-rule="evenodd" d="M21.8184 6.14598C21.1358 6.44844 20.4034 6.65356 19.6339 6.74513C20.4196 6.27462 21.0211 5.52831 21.3061 4.64177C20.5691 5.0775 19.7556 5.39389 18.8887 5.56541C18.1946 4.82489 17.2072 4.36365 16.112 4.36365C14.011 4.36365 12.3075 6.06719 12.3075 8.16707C12.3075 8.46489 12.3411 8.75577 12.406 9.03392C9.24459 8.87513 6.44128 7.3605 4.56507 5.05895C4.2371 5.61986 4.05053 6.27344 4.05053 6.9711C4.05053 8.29107 4.72268 9.45574 5.74249 10.1371C5.11901 10.1163 4.53262 9.94477 4.01925 9.65968V9.70719C4.01925 11.5498 5.3311 13.0876 7.07056 13.4376C6.75186 13.5234 6.4158 13.5709 6.06813 13.5709C5.82246 13.5709 5.58489 13.5466 5.35195 13.5002C5.83634 15.0125 7.24092 16.1123 8.90507 16.1424C7.60365 17.1623 5.96268 17.7683 4.18034 17.7683C3.87325 17.7683 3.57077 17.7498 3.27295 17.7162C4.9568 18.7974 6.95586 19.4279 9.1044 19.4279C16.1028 19.4279 19.9283 13.6312 19.9283 8.60398L19.9155 8.11147C20.663 7.57834 21.3096 6.90853 21.8184 6.14598Z" fill="white"/>
</mask>
<g mask="url(#mask0_1_2298)">
</g>
</svg>
